<svg height="480pt" viewBox="0 0 480 480" width="480pt" xmlns="http://www.w3.org/2000/svg"><path d="m136 128h320c8.835938 0 16 7.164062 16 16v16c0 8.835938-7.164062 16-16 16h-320c-8.835938 0-16-7.164062-16-16v-16c0-8.835938 7.164062-16 16-16zm0 0" fill="#ffd5a7"/><path d="m448 176h-304v208c0 8.835938 7.164062 16 16 16h272c8.835938 0 16-7.164062 16-16zm0 0" fill="#e6c097"/><path d="m248 128h96v48h-96zm0 0" fill="#ff675b"/><path d="m264 176h64v224h-64zm0 0" fill="#cc5249"/><path d="m312 296h-288c-8.835938 0-16 7.164062-16 16v24.710938c.035156 3.933593 2.917969 7.265624 6.808594 7.867187 19.179687 3.316406 33.191406 19.957031 33.191406 39.421875s-14.011719 36.105469-33.191406 39.421875c-3.890625.601563-6.773438 3.933594-6.808594 7.867187v24.710938c0 8.835938 7.164062 16 16 16h288c8.835938 0 16-7.164062 16-16v-144c0-8.835938-7.164062-16-16-16zm0 0" fill="#73c97c"/><path d="m288 64h16c8.835938 0 16 7.164062 16 16v48h-48v-48c0-8.835938 7.164062-16 16-16zm0 0" fill="#cc5249"/><path d="m456 120h-128v-16h88c22.082031-.027344 39.972656-17.917969 40-40v-16h-16v16c-.015625 13.25-10.75 23.984375-24 24h-16.203125c5.289063-6.882812 8.171875-15.316406 8.203125-24v-32c0-17.671875-14.328125-32-32-32s-32 14.328125-32 32v32c-.03125 10.136719-6.4375 19.15625-16 22.527344v-6.527344c-.015625-13.25-10.75-23.984375-24-24h-16c-13.25.015625-23.984375 10.75-24 24v6.523438c-9.5625-3.367188-15.96875-12.386719-16-22.523438v-32c0-17.671875-14.328125-32-32-32s-32 14.328125-32 32v32c.03125 8.683594 2.914062 17.117188 8.203125 24h-16.203125c-13.25-.015625-23.984375-10.75-24-24v-16h-16v16c.027344 22.082031 17.917969 39.972656 40 40h88v16h-128c-13.25.015625-23.984375 10.75-24 24v16c.015625 13.25 10.75 23.984375 24 24v88h16v-88h104v88h16v-88h48v88h16v-88h104v200c-.003906 4.417969-3.582031 7.996094-8 8h-80v16h80c13.25-.015625 23.984375-10.75 24-24v-200c13.25-.015625 23.984375-10.75 24-24v-16c-.015625-13.25-10.75-23.984375-24-24zm-96-56v-32c0-8.835938 7.164062-16 16-16s16 7.164062 16 16v32c-.015625 13.25-10.75 23.984375-24 24h-16.019531c5.214843-6.914062 8.027343-15.339844 8.019531-24zm-136 24c-13.25-.015625-23.984375-10.75-24-24v-32c0-8.835938 7.164062-16 16-16s16 7.164062 16 16v32c-.007812 8.660156 2.804688 17.085938 8.019531 24zm56-8c.003906-4.417969 3.582031-7.996094 8-8h16c4.417969.003906 7.996094 3.582031 8 8v40h-32zm-144 88c-4.417969-.003906-7.996094-3.582031-8-8v-16c.003906-4.417969 3.582031-7.996094 8-8h104v32zm120 0v-32h80v32zm208-8c-.003906 4.417969-3.582031 7.996094-8 8h-104v-32h104c4.417969.003906 7.996094 3.582031 8 8zm0 0"/><path d="m216 328h16v16h-16zm0 0"/><path d="m216 360h16v16h-16zm0 0"/><path d="m216 392h16v16h-16zm0 0"/><path d="m216 424h16v16h-16zm0 0"/><path d="m312 288h-288c-13.25.015625-23.984375 10.75-24 24v24.710938c.0390625 7.832031 5.726562 14.488281 13.457031 15.75 15.34375 2.660156 26.546875 15.972656 26.542969 31.542968 0 15.570313-11.207031 28.878906-26.550781 31.535156-7.726563 1.265626-13.4101565 7.921876-13.449219 15.75v24.710938c.015625 13.25 10.75 23.984375 24 24h288c13.25-.015625 23.984375-10.75 24-24v-144c-.015625-13.25-10.75-23.984375-24-24zm8 168c-.003906 4.417969-3.582031 7.996094-8 8h-80v-8h-16v8h-192c-4.417969-.003906-7.996094-3.582031-8-8l.160156-24.695312c23.050782-3.96875 39.878906-23.976563 39.839844-47.363282-.039062-23.390625-16.9375-43.339844-40-47.230468v-24.710938c.003906-4.417969 3.582031-7.996094 8-8h192v8h16v-8h80c4.417969.003906 7.996094 3.582031 8 8zm0 0"/></svg>